<mxfile host="app.diagrams.net" modified="2024-10-23T07:04:49.863Z" agent="Mozilla/5.0 (Windows NT 10.0; Win64; x64) AppleWebKit/537.36 (KHTML, like Gecko) Chrome/129.0.0.0 Safari/537.36 Edg/129.0.0.0" version="24.6.4" etag="spEDH7ljAJsBij7C86iG" type="github">
  <diagram name="Page-1" id="SlwBsLvOOsn-Ke-6Gmf_">
    <mxGraphModel>
      <root>
        <mxCell id="0" />
        <mxCell id="1" parent="0" />
      </root>
    </mxGraphModel>
  </diagram>
</mxfile>
